<svg xmlns="http://www.w3.org/2000/svg" xmlns:xlink="http://www.w3.org/1999/xlink" width="500" zoomAndPan="magnify" viewBox="0 0 375 374.999991" height="500" preserveAspectRatio="xMidYMid meet" version="1.0"><defs><g/></defs><g fill="#5a67ba" fill-opacity="1"><g transform="translate(159.306907, 135.007038)"><g><path d="M 8.40625 -7.640625 C 8.207031 -8.015625 7.914062 -8.296875 7.53125 -8.484375 C 7.15625 -8.679688 6.710938 -8.78125 6.203125 -8.78125 C 5.328125 -8.78125 4.625 -8.488281 4.09375 -7.90625 C 3.5625 -7.332031 3.296875 -6.566406 3.296875 -5.609375 C 3.296875 -4.578125 3.570312 -3.769531 4.125 -3.1875 C 4.6875 -2.613281 5.457031 -2.328125 6.4375 -2.328125 C 7.101562 -2.328125 7.664062 -2.492188 8.125 -2.828125 C 8.59375 -3.171875 8.929688 -3.660156 9.140625 -4.296875 L 5.6875 -4.296875 L 5.6875 -6.3125 L 11.609375 -6.3125 L 11.609375 -3.78125 C 11.398438 -3.09375 11.054688 -2.457031 10.578125 -1.875 C 10.097656 -1.289062 9.484375 -0.816406 8.734375 -0.453125 C 7.992188 -0.0976562 7.15625 0.078125 6.21875 0.078125 C 5.113281 0.078125 4.128906 -0.160156 3.265625 -0.640625 C 2.398438 -1.128906 1.726562 -1.800781 1.25 -2.65625 C 0.769531 -3.519531 0.53125 -4.503906 0.53125 -5.609375 C 0.53125 -6.710938 0.769531 -7.695312 1.25 -8.5625 C 1.726562 -9.425781 2.394531 -10.097656 3.25 -10.578125 C 4.113281 -11.054688 5.097656 -11.296875 6.203125 -11.296875 C 7.546875 -11.296875 8.675781 -10.972656 9.59375 -10.328125 C 10.507812 -9.679688 11.117188 -8.785156 11.421875 -7.640625 Z M 8.40625 -7.640625 "/></g></g></g><g fill="#5a67ba" fill-opacity="1"><g transform="translate(171.433432, 135.007038)"><g><path d="M 6.265625 0.109375 C 5.222656 0.109375 4.257812 -0.132812 3.375 -0.625 C 2.5 -1.113281 1.804688 -1.796875 1.296875 -2.671875 C 0.785156 -3.546875 0.53125 -4.53125 0.53125 -5.625 C 0.53125 -6.71875 0.785156 -7.695312 1.296875 -8.5625 C 1.804688 -9.4375 2.5 -10.117188 3.375 -10.609375 C 4.257812 -11.097656 5.222656 -11.34375 6.265625 -11.34375 C 7.316406 -11.34375 8.28125 -11.097656 9.15625 -10.609375 C 10.039062 -10.117188 10.734375 -9.4375 11.234375 -8.5625 C 11.734375 -7.695312 11.984375 -6.71875 11.984375 -5.625 C 11.984375 -4.53125 11.726562 -3.546875 11.21875 -2.671875 C 10.707031 -1.796875 10.015625 -1.113281 9.140625 -0.625 C 8.273438 -0.132812 7.316406 0.109375 6.265625 0.109375 Z M 6.265625 -2.375 C 7.160156 -2.375 7.875 -2.671875 8.40625 -3.265625 C 8.945312 -3.859375 9.21875 -4.644531 9.21875 -5.625 C 9.21875 -6.601562 8.945312 -7.390625 8.40625 -7.984375 C 7.875 -8.578125 7.160156 -8.875 6.265625 -8.875 C 5.367188 -8.875 4.648438 -8.578125 4.109375 -7.984375 C 3.578125 -7.398438 3.3125 -6.613281 3.3125 -5.625 C 3.3125 -4.632812 3.578125 -3.84375 4.109375 -3.25 C 4.648438 -2.664062 5.367188 -2.375 6.265625 -2.375 Z M 6.265625 -2.375 "/></g></g></g><g fill="#5a67ba" fill-opacity="1"><g transform="translate(183.941904, 135.007038)"><g><path d="M 6.265625 0.109375 C 5.222656 0.109375 4.257812 -0.132812 3.375 -0.625 C 2.5 -1.113281 1.804688 -1.796875 1.296875 -2.671875 C 0.785156 -3.546875 0.53125 -4.53125 0.53125 -5.625 C 0.53125 -6.71875 0.785156 -7.695312 1.296875 -8.5625 C 1.804688 -9.4375 2.5 -10.117188 3.375 -10.609375 C 4.257812 -11.097656 5.222656 -11.34375 6.265625 -11.34375 C 7.316406 -11.34375 8.28125 -11.097656 9.15625 -10.609375 C 10.039062 -10.117188 10.734375 -9.4375 11.234375 -8.5625 C 11.734375 -7.695312 11.984375 -6.71875 11.984375 -5.625 C 11.984375 -4.53125 11.726562 -3.546875 11.21875 -2.671875 C 10.707031 -1.796875 10.015625 -1.113281 9.140625 -0.625 C 8.273438 -0.132812 7.316406 0.109375 6.265625 0.109375 Z M 6.265625 -2.375 C 7.160156 -2.375 7.875 -2.671875 8.40625 -3.265625 C 8.945312 -3.859375 9.21875 -4.644531 9.21875 -5.625 C 9.21875 -6.601562 8.945312 -7.390625 8.40625 -7.984375 C 7.875 -8.578125 7.160156 -8.875 6.265625 -8.875 C 5.367188 -8.875 4.648438 -8.578125 4.109375 -7.984375 C 3.578125 -7.398438 3.3125 -6.613281 3.3125 -5.625 C 3.3125 -4.632812 3.578125 -3.84375 4.109375 -3.25 C 4.648438 -2.664062 5.367188 -2.375 6.265625 -2.375 Z M 6.265625 -2.375 "/></g></g></g><g fill="#5a67ba" fill-opacity="1"><g transform="translate(196.450376, 135.007038)"><g><path d="M 5.171875 -11.171875 C 6.347656 -11.171875 7.375 -10.9375 8.25 -10.46875 C 9.132812 -10.007812 9.816406 -9.359375 10.296875 -8.515625 C 10.785156 -7.671875 11.03125 -6.695312 11.03125 -5.59375 C 11.03125 -4.5 10.785156 -3.523438 10.296875 -2.671875 C 9.816406 -1.828125 9.132812 -1.171875 8.25 -0.703125 C 7.363281 -0.234375 6.335938 0 5.171875 0 L 0.984375 0 L 0.984375 -11.171875 Z M 5 -2.359375 C 6.03125 -2.359375 6.832031 -2.640625 7.40625 -3.203125 C 7.976562 -3.765625 8.265625 -4.5625 8.265625 -5.59375 C 8.265625 -6.625 7.976562 -7.425781 7.40625 -8 C 6.832031 -8.570312 6.03125 -8.859375 5 -8.859375 L 3.703125 -8.859375 L 3.703125 -2.359375 Z M 5 -2.359375 "/></g></g></g><g fill="#5a67ba" fill-opacity="1"><g transform="translate(208.019917, 135.007038)"><g><path d="M 8.265625 -11.171875 L 8.265625 -9 L 3.703125 -9 L 3.703125 -6.640625 L 7.109375 -6.640625 L 7.109375 -4.515625 L 3.703125 -4.515625 L 3.703125 0 L 0.984375 0 L 0.984375 -11.171875 Z M 8.265625 -11.171875 "/></g></g></g><g fill="#5a67ba" fill-opacity="1"><g transform="translate(216.724922, 135.007038)"><g><path d="M 6.265625 0.109375 C 5.222656 0.109375 4.257812 -0.132812 3.375 -0.625 C 2.5 -1.113281 1.804688 -1.796875 1.296875 -2.671875 C 0.785156 -3.546875 0.53125 -4.53125 0.53125 -5.625 C 0.53125 -6.71875 0.785156 -7.695312 1.296875 -8.5625 C 1.804688 -9.4375 2.5 -10.117188 3.375 -10.609375 C 4.257812 -11.097656 5.222656 -11.34375 6.265625 -11.34375 C 7.316406 -11.34375 8.28125 -11.097656 9.15625 -10.609375 C 10.039062 -10.117188 10.734375 -9.4375 11.234375 -8.5625 C 11.734375 -7.695312 11.984375 -6.71875 11.984375 -5.625 C 11.984375 -4.53125 11.726562 -3.546875 11.21875 -2.671875 C 10.707031 -1.796875 10.015625 -1.113281 9.140625 -0.625 C 8.273438 -0.132812 7.316406 0.109375 6.265625 0.109375 Z M 6.265625 -2.375 C 7.160156 -2.375 7.875 -2.671875 8.40625 -3.265625 C 8.945312 -3.859375 9.21875 -4.644531 9.21875 -5.625 C 9.21875 -6.601562 8.945312 -7.390625 8.40625 -7.984375 C 7.875 -8.578125 7.160156 -8.875 6.265625 -8.875 C 5.367188 -8.875 4.648438 -8.578125 4.109375 -7.984375 C 3.578125 -7.398438 3.3125 -6.613281 3.3125 -5.625 C 3.3125 -4.632812 3.578125 -3.84375 4.109375 -3.25 C 4.648438 -2.664062 5.367188 -2.375 6.265625 -2.375 Z M 6.265625 -2.375 "/></g></g></g><g fill="#5a67ba" fill-opacity="1"><g transform="translate(229.233394, 135.007038)"><g><path d="M 6.265625 0.109375 C 5.222656 0.109375 4.257812 -0.132812 3.375 -0.625 C 2.5 -1.113281 1.804688 -1.796875 1.296875 -2.671875 C 0.785156 -3.546875 0.53125 -4.53125 0.53125 -5.625 C 0.53125 -6.71875 0.785156 -7.695312 1.296875 -8.5625 C 1.804688 -9.4375 2.5 -10.117188 3.375 -10.609375 C 4.257812 -11.097656 5.222656 -11.34375 6.265625 -11.34375 C 7.316406 -11.34375 8.28125 -11.097656 9.15625 -10.609375 C 10.039062 -10.117188 10.734375 -9.4375 11.234375 -8.5625 C 11.734375 -7.695312 11.984375 -6.71875 11.984375 -5.625 C 11.984375 -4.53125 11.726562 -3.546875 11.21875 -2.671875 C 10.707031 -1.796875 10.015625 -1.113281 9.140625 -0.625 C 8.273438 -0.132812 7.316406 0.109375 6.265625 0.109375 Z M 6.265625 -2.375 C 7.160156 -2.375 7.875 -2.671875 8.40625 -3.265625 C 8.945312 -3.859375 9.21875 -4.644531 9.21875 -5.625 C 9.21875 -6.601562 8.945312 -7.390625 8.40625 -7.984375 C 7.875 -8.578125 7.160156 -8.875 6.265625 -8.875 C 5.367188 -8.875 4.648438 -8.578125 4.109375 -7.984375 C 3.578125 -7.398438 3.3125 -6.613281 3.3125 -5.625 C 3.3125 -4.632812 3.578125 -3.84375 4.109375 -3.25 C 4.648438 -2.664062 5.367188 -2.375 6.265625 -2.375 Z M 6.265625 -2.375 "/></g></g></g><g fill="#5a67ba" fill-opacity="1"><g transform="translate(241.741865, 135.007038)"><g><path d="M 5.171875 -11.171875 C 6.347656 -11.171875 7.375 -10.9375 8.25 -10.46875 C 9.132812 -10.007812 9.816406 -9.359375 10.296875 -8.515625 C 10.785156 -7.671875 11.03125 -6.695312 11.03125 -5.59375 C 11.03125 -4.5 10.785156 -3.523438 10.296875 -2.671875 C 9.816406 -1.828125 9.132812 -1.171875 8.25 -0.703125 C 7.363281 -0.234375 6.335938 0 5.171875 0 L 0.984375 0 L 0.984375 -11.171875 Z M 5 -2.359375 C 6.03125 -2.359375 6.832031 -2.640625 7.40625 -3.203125 C 7.976562 -3.765625 8.265625 -4.5625 8.265625 -5.59375 C 8.265625 -6.625 7.976562 -7.425781 7.40625 -8 C 6.832031 -8.570312 6.03125 -8.859375 5 -8.859375 L 3.703125 -8.859375 L 3.703125 -2.359375 Z M 5 -2.359375 "/></g></g></g><g fill="#5a67ba" fill-opacity="1"><g transform="translate(133.507275, 138.757052)"><g><path d="M 14.125 -12.84375 C 13.78125 -13.46875 13.289062 -13.941406 12.65625 -14.265625 C 12.03125 -14.597656 11.289062 -14.765625 10.4375 -14.765625 C 8.957031 -14.765625 7.769531 -14.273438 6.875 -13.296875 C 5.976562 -12.328125 5.53125 -11.035156 5.53125 -9.421875 C 5.53125 -7.691406 6 -6.335938 6.9375 -5.359375 C 7.875 -4.390625 9.164062 -3.90625 10.8125 -3.90625 C 11.9375 -3.90625 12.882812 -4.191406 13.65625 -4.765625 C 14.425781 -5.335938 14.992188 -6.15625 15.359375 -7.21875 L 9.546875 -7.21875 L 9.546875 -10.59375 L 19.5 -10.59375 L 19.5 -6.34375 C 19.164062 -5.195312 18.59375 -4.132812 17.78125 -3.15625 C 16.96875 -2.175781 15.9375 -1.378906 14.6875 -0.765625 C 13.4375 -0.160156 12.023438 0.140625 10.453125 0.140625 C 8.597656 0.140625 6.941406 -0.265625 5.484375 -1.078125 C 4.035156 -1.890625 2.90625 -3.019531 2.09375 -4.46875 C 1.28125 -5.914062 0.875 -7.566406 0.875 -9.421875 C 0.875 -11.273438 1.28125 -12.925781 2.09375 -14.375 C 2.90625 -15.832031 4.035156 -16.96875 5.484375 -17.78125 C 6.929688 -18.59375 8.582031 -19 10.4375 -19 C 12.675781 -19 14.566406 -18.453125 16.109375 -17.359375 C 17.660156 -16.273438 18.6875 -14.769531 19.1875 -12.84375 Z M 14.125 -12.84375 "/></g></g></g></svg>